<svg id="Layer_1" data-name="Layer 1" xmlns="http://www.w3.org/2000/svg" viewBox="0 0 383 382.4"><defs><style>.cls-1{fill:#f0f0f0;}.cls-2{fill:#d80027;}</style></defs><title>canada</title><path class="cls-1" d="M383,192.2c0,105-85.16,190.2-190.2,190.2S2.6,297.24,2.6,192.2,87.76,2,192.8,2,383,87.16,383,192.2Zm0,0"/><path class="cls-2" d="M383,192.2A190.22,190.22,0,0,0,275.5,20.87V363.52A190.21,190.21,0,0,0,383,192.2Zm0,0"/><path class="cls-2" d="M2.6,192.2a190.21,190.21,0,0,0,107.5,171.32V20.87A190.22,190.22,0,0,0,2.6,192.2Zm0,0"/><path class="cls-2" d="M225.88,217,259,200.47l-16.54-8.27V175.66L209.34,192.2l16.54-33.08H209.34L192.8,134.31l-16.54,24.81H159.72l16.54,33.08-33.08-16.54V192.2l-16.54,8.27L159.72,217l-8.27,16.54h33.08v24.81h16.54V233.55h33.08Zm0,0"/></svg>