<svg id="Layer_1" data-name="Layer 1" xmlns="http://www.w3.org/2000/svg" viewBox="0 0 103.67 77.95"><defs><style>.cls-1{fill:#fff;}</style></defs><title>icon3</title><path class="cls-1" d="M71.53,23.91a18.9,18.9,0,0,0-1-2.4A20.17,20.17,0,0,0,51.55,9,20.21,20.21,0,0,0,31.16,27.59v2.56c0,.11,0,1.07.09,1.55.75,6,5.46,12.32,9,18.3,3.79,6.4,7.72,12.7,11.61,19,2.4-4.11,4.8-8.27,7.14-12.27.64-1.17,1.38-2.34,2-3.46.43-.75,1.24-1.49,1.61-2.19,3.79-6.94,9.89-13.92,9.89-20.81V27.43a21.29,21.29,0,0,0-1-3.52ZM51.72,36.76a7.33,7.33,0,0,1-7-5,7,7,0,0,1-.2-1.87V28.22c0-4.69,4-6.83,7.45-6.83a7.56,7.56,0,0,1,7.57,7.68,7.75,7.75,0,0,1-7.8,7.68Zm0,0"/></svg>