<?xml version="1.0" encoding="utf-8"?>
<!-- Generator: Adobe Illustrator 21.0.2, SVG Export Plug-In . SVG Version: 6.00 Build 0)  -->
<svg version="1.1" id="Layer_1" xmlns="http://www.w3.org/2000/svg" xmlns:xlink="http://www.w3.org/1999/xlink" x="0px" y="0px"
	 viewBox="0 0 103.7 78" style="enable-background:new 0 0 103.7 78;" xml:space="preserve">
<style type="text/css">
	.st0{fill:#FFFFFF;}
</style>
<g>
	<polygon class="st0" points="49.8,6.6 53.9,19.3 67.3,19.3 56.5,27.2 60.6,39.9 49.8,32 39,39.9 43.1,27.2 32.3,19.3 45.6,19.3 	
		"/>
	<polygon class="st0" points="74.1,38.1 78.2,50.8 91.6,50.8 80.8,58.6 84.9,71.3 74.1,63.5 63.3,71.3 67.4,58.6 56.6,50.8 70,50.8 
			"/>
	<polygon class="st0" points="29.6,38.1 33.7,50.8 47.1,50.8 36.3,58.6 40.4,71.3 29.6,63.5 18.8,71.3 22.9,58.6 12.1,50.8 
		25.4,50.8 	"/>
</g>
</svg>
