<svg id="Layer_1" data-name="Layer 1" xmlns="http://www.w3.org/2000/svg" viewBox="0 0 103.67 77.95"><defs><style>.cls-1{fill:#fff;}</style></defs><title>icon2</title><path class="cls-1" d="M24.89,42.54V57.46s14.32-6,27-6,27,6,27,6V42.32S65.27,35.09,51.7,35.09s-26.81,7.45-26.81,7.45Zm0,0"/><path class="cls-1" d="M94.11,39l5.38-2.89-5.38-3V31.7S95.62,24,87,28a1.61,1.61,0,0,0-.77.71L50.79,9.08,4.18,35.76l17.6,8V41.16s14.76-8.29,29.91-8.29S82,40.93,82,40.93v4.52l9.72-5.21V61.36H88.53v7.51l4.31-3,4.77,3V61.36H94.12V39Zm-2.34-8.58v1.41l-2.84-1.57c1-.69,2.84-1.63,2.84.16Zm-1,8.29a2.27,2.27,0,1,1,2.27-2.27,2.27,2.27,0,0,1-2.27,2.27Zm0,0"/></svg>