<svg id="Layer_1" data-name="Layer 1" xmlns="http://www.w3.org/2000/svg" viewBox="0 0 383 382.4"><defs><style>.cls-1{fill:#f0f0f0;}.cls-2{fill:#0052b4;}.cls-3{fill:#d80027;}</style></defs><title>uk</title><path class="cls-1" d="M381.7,191.2c0,105-85.16,190.2-190.2,190.2S1.3,296.24,1.3,191.2,86.45,1,191.5,1,381.7,86.15,381.7,191.2Zm0,0"/><path class="cls-2" d="M40.62,75.4A189.5,189.5,0,0,0,7.85,141.58H106.8Zm0,0"/><path class="cls-2" d="M375.14,141.58A189.51,189.51,0,0,0,342.38,75.4L276.2,141.58Zm0,0"/><path class="cls-2" d="M7.85,240.82A189.56,189.56,0,0,0,40.62,307l66.18-66.18Zm0,0"/><path class="cls-2" d="M307.3,40.32A189.59,189.59,0,0,0,241.12,7.55V106.5Zm0,0"/><path class="cls-2" d="M75.7,342.08a189.46,189.46,0,0,0,66.18,32.77V275.9Zm0,0"/><path class="cls-2" d="M141.88,7.55A189.57,189.57,0,0,0,75.7,40.32l66.18,66.18Zm0,0"/><path class="cls-2" d="M241.12,374.84a189.5,189.5,0,0,0,66.18-32.76L241.12,275.9Zm0,0"/><path class="cls-2" d="M276.2,240.82,342.38,307a189.5,189.5,0,0,0,32.76-66.18Zm0,0"/><path class="cls-3" d="M380.09,166.39H216.31V2.61a191.9,191.9,0,0,0-49.62,0V166.39H2.91a191.9,191.9,0,0,0,0,49.62H166.69V379.79a191.79,191.79,0,0,0,49.62,0V216H380.09a191.79,191.79,0,0,0,0-49.62Zm0,0"/><path class="cls-3" d="M241.12,240.82,326,325.69q5.86-5.85,11.18-12.21L264.5,240.82Zm0,0"/><path class="cls-3" d="M141.88,240.82h0L57,325.69q5.86,5.86,12.21,11.18l72.66-72.66Zm0,0"/><path class="cls-3" d="M141.88,141.58,57,56.71q-5.86,5.86-11.18,12.21l72.66,72.66Zm0,0"/><path class="cls-3" d="M241.12,141.58,326,56.71q-5.85-5.85-12.21-11.18l-72.66,72.67Zm0,0"/></svg>