<svg id="Layer_1" data-name="Layer 1" xmlns="http://www.w3.org/2000/svg" viewBox="0 0 383 382.4"><defs><style>.cls-1{fill:#f0f0f0;}.cls-2{fill:#d80027;}.cls-3{fill:#0052b4;}</style></defs><title>us</title><path class="cls-1" d="M381.88,191.2c0,105.14-85.24,190.38-190.38,190.38S1.12,296.34,1.12,191.2,86.35.82,191.5.82,381.88,86.05,381.88,191.2Zm0,0"/><path class="cls-2" d="M183.22,191.2H381.88a190.46,190.46,0,0,0-6.56-49.66H183.22Zm0,0"/><path class="cls-2" d="M183.22,91.87H353.93A191.33,191.33,0,0,0,310,42.21H183.22Zm0,0"/><path class="cls-2" d="M191.5,381.58A189.56,189.56,0,0,0,310,340.19H73A189.56,189.56,0,0,0,191.5,381.58Zm0,0"/><path class="cls-2" d="M29.06,290.53H353.93a189.18,189.18,0,0,0,21.38-49.66H7.68a189.27,189.27,0,0,0,21.38,49.66Zm0,0"/><path class="cls-3" d="M89.31,30.55h17.35L90.52,42.27l6.16,19L80.54,49.52,64.41,61.24l5.33-16.39A191.44,191.44,0,0,0,32.81,86h5.56L28.1,93.47q-2.4,4-4.61,8.14l4.91,15.09-9.15-6.65q-3.41,7.23-6.23,14.78l5.41,16.63H38.37L22.23,153.19l6.16,19L12.26,160.44l-9.67,7A192.57,192.57,0,0,0,1.12,191.2H191.5V.82A189.49,189.49,0,0,0,89.31,30.55Zm7.38,141.61L80.54,160.44,64.41,172.16l6.17-19L54.44,141.47H74.38l6.16-19,6.17,19h19.95L90.52,153.19ZM90.52,97.73l6.16,19L80.54,105,64.41,116.7l6.17-19L54.44,86H74.38l6.16-19,6.17,19h19.95ZM165,172.16l-16.14-11.72L132.7,172.16l6.17-19-16.14-11.72h19.95l6.16-19,6.17,19h19.95l-16.14,11.72Zm-6.16-74.43,6.16,19L148.83,105,132.7,116.7l6.17-19L122.72,86h19.95l6.16-19L155,86h19.95Zm0-55.46,6.16,19L148.83,49.52,132.7,61.24l6.17-19L122.72,30.55h19.95l6.16-19,6.17,19h19.95Zm0,0"/></svg>