<svg id="Layer_1" data-name="Layer 1" xmlns="http://www.w3.org/2000/svg" viewBox="0 0 61 51.89"><defs><style>.cls-1{fill:#00a4ef;}</style></defs><title>icon_3</title><path class="cls-1" d="M36.2,17.78a10,10,0,0,0-9.78-8.34H19.47V7.67A1,1,0,0,0,17.79,7L11.2,13.57a1,1,0,0,0,0,1.39l6.59,6.59a1,1,0,0,0,1.68-.7V19.09h6.95a.28.28,0,0,1,.26.26V44.22a1,1,0,0,0,1,1h7.68a1,1,0,0,0,1-1V27.68a.28.28,0,0,1,.26-.26h4.94v1.7a1,1,0,0,0,1.68.7l6.59-6.59a1,1,0,0,0,0-1.39l-6.59-6.59a1,1,0,0,0-1.68.7v1.84Zm-9.78-.65H18.49a1,1,0,0,0-1,1v.38l-4.22-4.22L17.5,10v.38a1,1,0,0,0,1,1h7.93a8,8,0,0,1,7.83,6.65,9.93,9.93,0,0,0-5.61,3.71V19.35a2.26,2.26,0,0,0-2.23-2.23ZM43.5,26.75v-.31a1,1,0,0,0-1-1H36.59a2.26,2.26,0,0,0-2.23,2.23V43.23H28.64V27.68a8,8,0,0,1,7.94-7.95h5.92a1,1,0,0,0,1-1v-.45l4.22,4.22Zm0,0"/></svg>