<svg id="Layer_1" data-name="Layer 1" xmlns="http://www.w3.org/2000/svg" viewBox="0 0 61 51.89"><defs><style>.cls-1{fill:#00a4ef;}</style></defs><title>icon_5</title><path class="cls-1" d="M30.5,26.6a7.84,7.84,0,1,0-7.84-7.84A7.85,7.85,0,0,0,30.5,26.6Zm0,0"/><path class="cls-1" d="M57.08,16.8a.69.69,0,0,0-.34-.4l-1.22-.62a.68.68,0,0,0-.92.3l-2.36,4.66a23.07,23.07,0,0,0-44.5-2.15.68.68,0,0,0,.44.86l1.3.42a.68.68,0,0,0,.86-.44,20.34,20.34,0,0,1,39.37,2.63l-5.25-2.66a.68.68,0,0,0-.92.3l-.62,1.22a.68.68,0,0,0,.3.92l8.56,4.33a.68.68,0,0,0,.92-.3L57,17.32a.69.69,0,0,0,0-.52Zm0,0"/><path class="cls-1" d="M52.83,32.43,51.52,32a.68.68,0,0,0-.86.44A20.34,20.34,0,0,1,11.3,29.82l5.25,2.65a.68.68,0,0,0,.92-.3L18.08,31a.68.68,0,0,0-.3-.92L9.22,25.7a.68.68,0,0,0-.92.3L4,34.56a.68.68,0,0,0,.3.92l1.22.62a.68.68,0,0,0,.31.07.69.69,0,0,0,.21,0,.68.68,0,0,0,.4-.34l2.36-4.66a23.07,23.07,0,0,0,44.5,2.15.68.68,0,0,0-.44-.86Zm0,0"/></svg>