<svg id="Layer_1" data-name="Layer 1" xmlns="http://www.w3.org/2000/svg" viewBox="0 0 61 51.89"><defs><style>.cls-1{fill:#00a4ef;}</style></defs><title>icon_6</title><path class="cls-1" d="M15.53,29.81a5.79,5.79,0,1,0-6.2,0A11.43,11.43,0,0,0,1,40.81c0,6.31,22.86,6.31,22.86,0a11.43,11.43,0,0,0-8.33-11Zm0,0"/><path class="cls-1" d="M59.52,29l-11.06-11V10.62a1.64,1.64,0,1,0-3.29,0v4l-7.8-7.8a1.64,1.64,0,0,0-2.32,0L24,17.9a5.87,5.87,0,0,1,2.19,2.46L36.21,10.31l21,21a1.65,1.65,0,0,0,1.16.48,1.63,1.63,0,0,0,1.16-.48,1.65,1.65,0,0,0,0-2.33Zm0,0"/><path class="cls-1" d="M54.82,30.86,37.38,13.42a1.63,1.63,0,0,0-2.32,0l-8.42,8.42a6,6,0,0,1,.1,1A5.89,5.89,0,0,1,26.32,25a9.35,9.35,0,0,1,3.85,7.53c0,1.06-.48,3.45-4.48,4.6a13.58,13.58,0,0,1,.5,3.64A5.13,5.13,0,0,1,24,44.95h5.54a4,4,0,0,0,4-4V34.72a3,3,0,0,1,2.66-2.93,3,3,0,0,1,2.66,2.93V41a4,4,0,0,0,4,4h8.51a4,4,0,0,0,4-4V32.46a3.84,3.84,0,0,0-.07-.75,1.64,1.64,0,0,0-.45-.85Zm0,0"/><path class="cls-1" d="M17.76,29.4a12.65,12.65,0,0,1,5.94,5.83c2.32-.39,4.15-1.28,4.15-2.66a7,7,0,0,0-5.08-6.71A3.53,3.53,0,1,0,18,20.79a6.93,6.93,0,0,1-.26,8.61Zm0,0"/></svg>