<svg id="Layer_1" data-name="Layer 1" xmlns="http://www.w3.org/2000/svg" viewBox="0 0 61 51.89"><defs><style>.cls-1{fill:#00a4ef;}</style></defs><title>icon_4</title><path class="cls-1" d="M53,20.58l-2.65,2.65-7.4-7.4,2.66-2.66a2,2,0,0,1,2.81-.23l4.82,4.83A2,2,0,0,1,53,20.58ZM41.67,17.06l7.4,7.4L31.43,42.11a1.41,1.41,0,0,1-.62.39l-.11,0-9.21,2.93a.63.63,0,0,1-.83-.82l2.93-9.21,0-.11a1.39,1.39,0,0,1,.39-.62l3.32-3.32H16.14a.82.82,0,1,1,0-1.64H29ZM29.15,41.55,24.59,37l-1.22,3.84,1.94,1.94ZM41.39,20a.67.67,0,0,0-.95,0L26.68,33.76a.67.67,0,0,0,.95.95L41.39,21a.67.67,0,0,0,0-.95ZM40.56,46.2a.89.89,0,0,1-.89.89H23.43L22,47.56a3,3,0,0,1-.9.14,2.78,2.78,0,0,1-1.74-.61H10.9A.89.89,0,0,1,10,46.2V8.73a.89.89,0,0,1,.89-.89h3.35V9.26a.89.89,0,0,0,1.79,0V7.84h5.13V9.26a.89.89,0,0,0,1.79,0V7.84H27.4V9.26a.89.89,0,0,0,1.79,0V7.84h4.91V9.26a.89.89,0,1,0,1.78,0V7.84h3.79a.89.89,0,0,1,.89.89v6.18l2.68-2.68V8.73a3.57,3.57,0,0,0-3.57-3.57H35.88V3a.89.89,0,0,0-1.78,0V5.17H29.19V3A.89.89,0,0,0,27.4,3V5.17H22.94V3a.89.89,0,0,0-1.78,0V5.17H16V3a.89.89,0,0,0-1.78,0V5.17H10.9A3.57,3.57,0,0,0,7.33,8.73V46.2a3.57,3.57,0,0,0,3.57,3.57H39.67a3.57,3.57,0,0,0,3.57-3.57v-13l-2.68,2.68Zm-7-30.34H16.14a.82.82,0,1,0,0,1.63H33.59a.82.82,0,1,0,0-1.63Zm0,6.6H16.14a.82.82,0,1,0,0,1.63H33.59a.82.82,0,1,0,0-1.63Zm0,0"/></svg>