<svg id="Layer_1" data-name="Layer 1" xmlns="http://www.w3.org/2000/svg" viewBox="0 0 61 51.89"><defs><style>.cls-1{fill:#00a4ef;}</style></defs><title>icon_1</title><path class="cls-1" d="M30.5,17.36a3.94,3.94,0,1,0-3.94-3.94,3.94,3.94,0,0,0,3.94,3.94Zm0,0"/><path class="cls-1" d="M31.33,18.63a.47.47,0,0,0-.34-.14H30a.47.47,0,0,0-.34.14.45.45,0,0,0-.06.53l.52.78-.24,2,.48,1.26a.14.14,0,0,0,.27,0L31.11,22l-.24-2,.52-.78a.45.45,0,0,0-.06-.53Zm0,0"/><path class="cls-1" d="M24.44,27.72H36.56a.56.56,0,0,0,.56-.56v-5a3.44,3.44,0,0,0-2.37-3.25l-1.11-.34a.4.4,0,0,0-.49.24L30.5,26l-2.65-7.27a.4.4,0,0,0-.37-.26l-.12,0-1.1.34a3.44,3.44,0,0,0-2.38,3.25v5a.56.56,0,0,0,.56.56Zm0,0"/><path class="cls-1" d="M17.9,19.37A3.94,3.94,0,1,0,14,15.43a3.94,3.94,0,0,0,3.94,3.94Zm0,0"/><path class="cls-1" d="M24.6,30.19H21.47V24a3.56,3.56,0,1,0-7.13,0V32.4a3.42,3.42,0,0,0,3.42,3.42h4.07v5.6a1,1,0,0,0,1,1h3.75a1,1,0,0,0,1-1V33.1a2.92,2.92,0,0,0-2.91-2.92Zm0,0"/><path class="cls-1" d="M43.1,19.37a3.94,3.94,0,1,0-3.94-3.94,3.94,3.94,0,0,0,3.94,3.94Zm0,0"/><path class="cls-1" d="M43.1,20.43A3.56,3.56,0,0,0,39.53,24v6.19H36.4a2.91,2.91,0,0,0-2.91,2.91v8.33a1,1,0,0,0,1,1h3.75a1,1,0,0,0,1-1v-5.6h4.07a3.42,3.42,0,0,0,3.42-3.42V24a3.56,3.56,0,0,0-3.56-3.56Zm0,0"/></svg>