<svg id="Layer_1" data-name="Layer 1" xmlns="http://www.w3.org/2000/svg" viewBox="0 0 61 51.89"><defs><style>.cls-1{fill:#00a4ef;}</style></defs><title>icon_2</title><path class="cls-1" d="M50.86,5.33A2.06,2.06,0,0,0,48.8,3.26H12.72a2.05,2.05,0,0,0-1,3.84V30.85L13.74,29V7.39h34V30.07H21.2l-1.88,2.06h1.82L17.42,46a2.06,2.06,0,1,0,4,1.07l3.72-13.94H36.39l3.72,13.94a2.06,2.06,0,1,0,4-1.07l-3.71-13.9H48.8a1,1,0,0,0,1-1V7.1a2,2,0,0,0,1-1.77Z"/><path class="cls-1" d="M32.3,26.2V18.47a2.06,2.06,0,1,0-4.12,0V26.2a2.06,2.06,0,0,0,4.12,0Zm0,0"/><path class="cls-1" d="M39,26.2v-15a2.06,2.06,0,0,0-4.12,0V26.2a2.06,2.06,0,0,0,4.12,0Zm0,0"/><path class="cls-1" d="M45.71,26.2V15.37a2.06,2.06,0,0,0-4.12,0V26.2a2.06,2.06,0,0,0,4.12,0Zm0,0"/><path class="cls-1" d="M25.11,22a.51.51,0,0,0-.71,0L10.53,34.7a1.34,1.34,0,0,0,1.9,1.9L25.11,22.73a.51.51,0,0,0,0-.72Zm0,0"/></svg>